# xmcd CD database file
#
# Track frame offsets:
#	150
#	6305
#	20142
#	30532
#	44225
#	48212
#	66562
#	72810
#	82652
#	84500
#	99932
#	108120
#	124130
#	135995
#	153775
#	159345
#	174280
#	190890
#	199777
#	213167
#	224710
#	234257
#	243215
#	257950
#
# Disc length: 3589 seconds
#
# Revision: 3
# Processed by: cddbd v1.5.2PL0 Copyright (c) Steve Scherf et al.
# Submitted via: CDex 1.51
#
DISCID=3e0e0318
DTITLE=ミスター味っ子 - ミスター味っ子 満腹定食
DYEAR=2004
DGENRE=アニメ･特撮
TTITLE0=おはよう！
TTITLE1=ルネッサンス情熱
TTITLE2=偉大なる味皇
TTITLE3=おかずユンタ
TTITLE4=小西の告白
TTITLE5=必食料理人
TTITLE6=日之出食堂
TTITLE7=食生活
TTITLE8=アイキャッチ
TTITLE9=お鍋を見ててね
TTITLE10=味勝負！
TTITLE11=味皇料理会会歌
TTITLE12=下仲の告白
TTITLE13=スルメの意地
TTITLE14=予告編
TTITLE15=心のPhotograph
TTITLE16=天才少年料理人登場！
TTITLE17=料理人たちの哀愁
TTITLE18=ライバル現る
TTITLE19=ブラボーおじさんの料理解説
TTITLE20=味勝負開始
TTITLE21=緊迫～高まる情熱
TTITLE22=それぞれの勝利と敗北
TTITLE23=料理の心
EXTD=YEAR: 2004
EXTT0=
EXTT1=
EXTT2=
EXTT3=
EXTT4=
EXTT5=
EXTT6=
EXTT7=
EXTT8=
EXTT9=
EXTT10=
EXTT11=
EXTT12=
EXTT13=
EXTT14=
EXTT15=
EXTT16=
EXTT17=
EXTT18=
EXTT19=
EXTT20=
EXTT21=
EXTT22=
EXTT23=
PLAYORDER=
